<svg xmlns="http://www.w3.org/2000/svg" viewBox="0 0 20 19" width="20" height="19">
	<style>
		svg { cursor: pointer }
		svg:hover .shp0{ fill: #e74c3c }
		tspan { white-space:pre }
		.shp0 { fill: #999999 }
	</style>
	<g id="Footer">
		<g id="Icons">
			<g id="Social Icon">
				<path id="google plus" class="shp0" d="M9.98 11.03C9.47 10.66 8.49 9.78 8.49 9.26C8.49 8.66 8.67 8.36 9.58 7.65C10.51 6.91 11.06 6.01 11.06 4.82C11.06 3.39 10.53 1.67 9.35 1.67L11.14 1.67L12.4 0.84C12.4 0.84 8.17 0.84 6.76 0.84C4.24 0.84 1.86 2.6 1.86 4.82C1.86 7.1 3.58 8.85 6.15 8.85C6.33 8.85 6.5 8.81 6.67 8.79C6.51 9.11 6.39 9.45 6.39 9.83C6.39 10.46 6.73 10.96 7.16 11.38C6.83 11.38 6.52 11.38 6.18 11.38C3.05 11.38 0.2 13.07 0.2 15.15C0.2 17.19 3.28 18.34 6.41 18.34C9.98 18.34 11.82 16.75 11.82 14.7C11.82 13.06 11.46 12.08 9.98 11.03ZM6.97 8.19C5.52 8.15 4.14 6.56 3.89 4.64C3.64 2.73 4.61 1.26 6.06 1.31C7.51 1.35 8.89 2.89 9.14 4.8C9.39 6.72 8.42 8.23 6.97 8.19ZM6.4 17.43C4.24 17.43 2.68 16.5 2.68 14.85C2.68 13.23 4.61 11.88 6.77 11.91C7.28 11.91 7.75 11.99 8.18 12.13C9.35 12.95 9.98 13.42 10.22 14.35C10.27 14.54 10.29 14.73 10.29 14.93C10.29 16.59 9.44 17.43 6.4 17.43ZM17.64 1.63L17.64 4.17L20.12 4.17L20.12 5.85L17.64 5.85L17.64 8.35L15.98 8.35L15.98 5.85L13.5 5.85L13.5 4.17L15.98 4.17L15.98 1.63L17.64 1.63Z" />
			</g>
		</g>
	</g>
</svg>