<svg xmlns="http://www.w3.org/2000/svg" viewBox="0 0 21 20" width="21" height="20">
	<style>
		svg { cursor: pointer }
		svg:hover .shp0{ fill: #e74c3c }
		tspan { white-space:pre }
		.shp0 { fill: #999999 }
	</style>
	<g id="Footer">
		<g id="Icons">
			<g id="Social Icon">
				<path id="linkedin" class="shp0" d="M0.71 19.16L4.86 19.16L4.86 6.67L0.71 6.67L0.71 19.16ZM15.46 6.25C13.65 6.25 12.59 6.91 11.45 8.38L11.45 6.67L7.33 6.67L7.33 19.16L11.47 19.16L11.47 12.39C11.47 10.96 12.19 9.57 13.83 9.57C15.46 9.57 16.46 10.96 16.46 12.36L16.46 19.16L20.6 19.16L20.6 12.08C20.6 7.16 17.27 6.25 15.46 6.25ZM2.8 0.59C1.46 0.59 0.37 1.58 0.37 2.79C0.37 4 1.46 4.99 2.8 4.99C4.15 4.99 5.24 4 5.24 2.79C5.24 1.58 4.15 0.59 2.8 0.59Z" />
			</g>
		</g>
	</g>
</svg>