<svg xmlns="http://www.w3.org/2000/svg" viewBox="0 0 21 20" width="21" height="20">
	<style>
		svg { cursor: pointer }
		svg:hover .shp0{ fill: #e74c3c }
		tspan { white-space:pre }
		.shp0 { fill: #999999 }
	</style>
	<g id="Footer">
		<g id="Icons">
			<g id="Social Icon">
				<path id="rss" class="shp0" d="M3.34 14.18C1.74 14.18 0.44 15.48 0.44 17.07C0.44 18.67 1.74 19.96 3.34 19.96C4.94 19.96 6.24 18.67 6.24 17.07C6.24 15.48 4.94 14.18 3.34 14.18ZM0.59 6.69C0.54 6.69 0.49 6.7 0.44 6.7L0.44 10.39C0.49 10.38 0.54 10.38 0.59 10.38C5.69 10.38 9.97 14.67 9.97 19.76C9.97 19.84 9.97 19.91 9.96 19.99L13.66 19.99C13.67 19.91 13.68 19.84 13.68 19.76C13.68 12.64 7.73 6.69 0.59 6.69ZM0.59 0.02C0.54 0.02 0.49 0.03 0.44 0.03L0.44 3.75C0.49 3.75 0.54 3.74 0.59 3.74C9.39 3.74 16.66 10.98 16.66 19.76C16.66 19.84 16.65 19.91 16.65 19.99L20.3 19.99C20.3 19.91 20.31 19.84 20.31 19.76C20.31 8.95 11.43 0.02 0.59 0.02Z" />
			</g>
		</g>
	</g>
</svg>