<svg xmlns="http://www.w3.org/2000/svg" viewBox="0 0 21 20" width="21" height="20">
	<style>
		svg { cursor: pointer }
		svg:hover .shp0{ fill: #e74c3c }
		tspan { white-space:pre }
		.shp0 { fill: #999999 }
	</style>
	<g id="Footer">
		<g id="Icons">
			<g id="Social Icon">
				<path id="skype" class="shp0" d="M18.94 11.35C19 10.91 19.05 10.47 19.05 10.02C19.05 5.1 15.08 1.34 10.18 1.34C9.72 1.34 9.28 1.39 8.84 1.45C7.95 0.69 6.81 0 5.55 0C2.76 0 0.5 2.27 0.5 5.08C0.5 6.23 0.88 7.28 1.51 8.13C1.38 8.74 1.31 9.37 1.31 10.02C1.31 14.94 5.28 19.16 10.18 19.16C10.81 19.16 11.42 19.09 12.02 18.97C12.9 19.75 14.06 19.99 15.33 19.99C18.13 19.99 20.39 17.71 20.39 14.91C20.39 13.52 19.84 12.26 18.94 11.35ZM14.32 14.11C13.97 14.6 13.46 15 12.78 15.28C12.11 15.56 11.31 15.7 10.39 15.7C9.28 15.7 8.37 15.51 7.65 15.12C7.14 14.85 6.73 14.47 6.41 14.01C6.09 13.55 5.93 13.1 5.93 12.66C5.93 12.4 6.03 12.19 6.22 12.01C6.41 11.82 6.65 11.73 6.95 11.73C7.19 11.73 7.39 11.8 7.56 11.94C7.72 12.09 7.87 12.29 7.98 12.57C8.13 12.9 8.28 13.18 8.45 13.4C8.61 13.62 8.84 13.8 9.14 13.95C9.45 14.09 9.84 14.16 10.33 14.16C11 14.16 11.55 14.02 11.97 13.73C12.39 13.44 12.6 13.08 12.6 12.64C12.6 12.3 12.49 12.02 12.26 11.81C12.03 11.59 11.74 11.43 11.38 11.32C11.02 11.2 10.54 11.08 9.94 10.96C9.13 10.78 8.46 10.58 7.92 10.35C7.37 10.11 6.94 9.79 6.62 9.39C6.31 8.99 6.15 8.49 6.15 7.89C6.15 7.32 6.31 6.82 6.65 6.37C6.99 5.93 7.47 5.59 8.11 5.35C8.75 5.11 9.5 5 10.36 5C11.05 5 11.64 5.07 12.15 5.23C12.65 5.39 13.06 5.6 13.4 5.86C13.73 6.12 13.97 6.4 14.12 6.68C14.28 6.97 14.35 7.25 14.35 7.52C14.35 7.77 14.26 8 14.07 8.2C13.88 8.4 13.64 8.5 13.35 8.5C13.09 8.5 12.89 8.44 12.76 8.32C12.62 8.2 12.48 8 12.32 7.73C12.11 7.34 11.87 7.03 11.58 6.81C11.3 6.59 10.84 6.49 10.21 6.49C9.62 6.49 9.15 6.6 8.79 6.84C8.43 7.08 8.25 7.36 8.25 7.7C8.25 7.91 8.31 8.09 8.43 8.24C8.56 8.39 8.72 8.52 8.94 8.62C9.15 8.73 9.37 8.82 9.59 8.88C9.81 8.94 10.17 9.03 10.67 9.15C11.31 9.28 11.88 9.44 12.39 9.6C12.9 9.76 13.34 9.97 13.7 10.2C14.06 10.43 14.34 10.73 14.54 11.09C14.74 11.45 14.84 11.89 14.84 12.42C14.84 13.04 14.67 13.61 14.32 14.11Z" />
			</g>
		</g>
	</g>
</svg>