<svg xmlns="http://www.w3.org/2000/svg" viewBox="0 0 12 20" width="12" height="20">
	<style>
		svg { cursor: pointer }
		svg:hover .shp0{ fill: #e74c3c }
		tspan { white-space:pre }
		.shp0 { fill: #999999 }
	</style>
	<g id="Footer">
		<g id="Icons">
			<g id="Social Icon">
				<path id="tumblr" class="shp0" d="M9.66 16.71C7.96 16.71 7.03 15.38 7.03 14.35C7.03 13.9 7.03 11.41 7.03 8.36L11.17 8.36L11.17 4.99L7.03 4.99C7.03 2.37 7.03 0 7.03 0C7.03 0 5.5 0 4.14 0C4.14 4.34 0.39 5.14 0.39 5.14L0.39 8.32L2.88 8.32C2.88 8.32 2.88 12.98 2.88 15.46C2.88 17.93 5.15 19.99 7.92 19.99C10.68 19.99 12.01 18.88 12.01 18.88L12.01 15.61C12.01 15.61 11.37 16.71 9.66 16.71Z" />
			</g>
		</g>
	</g>
</svg>