<svg xmlns="http://www.w3.org/2000/svg" viewBox="0 0 21 17" width="21" height="17">
	<style>
		svg { cursor: pointer }
		svg:hover .shp0{ fill: #e74c3c }
		tspan { white-space:pre }
		.shp0 { fill: #999999 }
	</style>
	<g id="Footer">
		<g id="Icons">
			<path id="twitter" class="shp0" d="M20.54 2.06C20.21 2.24 19.2 2.62 18.27 2.71C18.87 2.38 19.76 1.32 19.98 0.47C19.4 0.84 18.07 1.38 17.42 1.38C17.42 1.38 17.42 1.38 17.42 1.38C16.67 0.6 15.62 -0.02 14.45 -0.02C12.18 -0.02 10.53 1.95 10.53 4.23C10.53 4.55 10.56 4.85 10.63 5.15L10.63 5.15C7.55 5.07 4.01 3.36 1.99 0.72C0.74 2.88 1.82 5.44 3.23 6.32C2.75 6.36 1.86 6.26 1.44 5.85C1.41 7.29 2.1 9.19 4.6 9.88C4.12 10.14 3.27 10.07 2.9 10.01C3.03 11.23 4.72 12.81 6.56 12.81C5.91 13.58 3.43 14.97 0.65 14.52C2.53 15.68 4.74 16.35 7.07 16.35C13.69 16.35 19.12 10.96 18.84 4.31C18.84 4.3 18.84 4.29 18.84 4.28C18.84 4.26 18.84 4.25 18.84 4.23C18.84 4.21 18.84 4.19 18.84 4.17C19.44 3.76 19.96 3.02 20.54 2.06Z" />
		</g>
	</g>
</svg>