<svg xmlns="http://www.w3.org/2000/svg" viewBox="0 0 21 19" width="21" height="19">
	<style>
		svg { cursor: pointer }
		svg:hover .shp0{ fill: #e74c3c }
		tspan { white-space:pre }
		.shp0 { fill: #999999 }
	</style>
	<g id="Footer">
		<g id="Icons">
			<g id="Social Icon">
				<path id="vimeo" class="shp0" d="M0.29 5.48C2.04 4.11 4.53 1.5 6.47 1.5C8.41 1.5 8.88 3.34 9.15 5.39C9.42 7.43 10.18 11.9 11.2 11.9C12.23 11.9 14.57 7.95 14.44 6.42C14.31 4.89 12.61 5.12 11.68 5.56C12.54 2.5 14.52 0.69 17.04 0.69C19.57 0.69 20.18 2.64 20.18 4.79C20.18 8.08 13.41 18.15 9.32 18.15C6.79 18.15 6.16 14.48 5.65 12.67C5.14 10.85 4.13 6.09 2.95 5.79C2.49 5.71 1.2 6.72 1.2 6.72L0.29 5.48Z" />
			</g>
		</g>
	</g>
</svg>